<svg xmlns="http://www.w3.org/2000/svg" viewBox="0 0 64 64" width="512" height="512"><path d="M54.364 34.12L49 28.756V3a1 1 0 00-1-1H18a1 1 0 00-.707.293l-10 10A1 1 0 007 13v37a1 1 0 001 1h28.874a10.914 10.914 0 001.726 7.692l.4.609V61a1 1 0 002 0v-2a1 1 0 00-.167-.552l-.572-.864A8.919 8.919 0 0138.905 51h3.41a7.32 7.32 0 001.438 3.05l.47.58a1 1 0 101.554-1.26l-.465-.574a5.3 5.3 0 01.1-6.746 1 1 0 00-.053-1.357l-5.249-5.247a2.021 2.021 0 01-.009-2.833 2.069 2.069 0 012.842-.006l4.164 4.164a1 1 0 00.462.462l2.444 2.444a1 1 0 001.414-1.414L49 39.836v-8.252l3.95 3.95a6.954 6.954 0 012.05 4.95v13.7a4.987 4.987 0 01-.84 2.774l-.654.981a2.991 2.991 0 00-.5 1.677L53.009 61a1 1 0 001 1h.005a1 1 0 00.995-1L55 59.606a1 1 0 01.168-.56l.653-.98A6.977 6.977 0 0057 54.183v-13.7a8.939 8.939 0 00-2.636-6.363zM17 5.414V12h-6.586zm27.351 29.773a4.1 4.1 0 00-5.661.009 4.03 4.03 0 000 5.661l4.641 4.643a7.243 7.243 0 00-1.148 3.5H9V14h9a1 1 0 001-1V4h28v33.836z"/><path d="M15 30v-1h4a1 1 0 000-2h-5a1 1 0 00-1 1v6a1 1 0 001 1h6a1 1 0 000-2h-5z"/><path d="M22.293 26.293L18 30.586l-1.293-1.293a1 1 0 10-1.414 1.414l2 2a1 1 0 001.414 0l5-5a1 1 0 00-1.414-1.414zM15 40v-1h4a1 1 0 000-2h-5a1 1 0 00-1 1v6a1 1 0 001 1h6a1 1 0 000-2h-5z"/><path d="M22.293 36.293L18 40.586l-1.293-1.293a1 1 0 10-1.414 1.414l2 2a1 1 0 001.414 0l5-5a1 1 0 00-1.414-1.414zM35 33h-9a1 1 0 000 2h9a1 1 0 000-2zM25 44a1 1 0 001 1h12a1 1 0 000-2H26a1 1 0 00-1 1zm17-15H26a1 1 0 000 2h16a1 1 0 000-2zm-7 10h-9a1 1 0 000 2h9a1 1 0 000-2zm-4-20c-1.221 0-2-.592-2-1a1 1 0 00-2 0c0 1.421 1.259 2.571 3 2.9V22a1 1 0 002 0v-1.1c1.741-.327 3-1.477 3-2.9 0-1.682-1.757-3-4-3-1.221 0-2-.592-2-1s.779-1 2-1 2 .592 2 1a1 1 0 002 0c0-1.421-1.259-2.571-3-2.9V10a1 1 0 00-2 0v1.1c-1.741.327-3 1.477-3 2.9 0 1.682 1.757 3 4 3 1.221 0 2 .592 2 1s-.779 1-2 1z"/><path d="M31 26a10 10 0 10-10-10 10.011 10.011 0 0010 10zm0-18a8 8 0 11-8 8 8.009 8.009 0 018-8z"/></svg>