<svg height="512" width="512" xmlns="http://www.w3.org/2000/svg"><path d="M123.467 346.334c4.999 0 9.066 4.067 9.066 9.066a7.5 7.5 0 0015 0c0-10.651-6.958-19.704-16.566-22.863v-1.987a7.5 7.5 0 00-15 0v1.987c-9.608 3.16-16.567 12.212-16.567 22.863 0 13.271 10.796 24.067 24.067 24.067 4.999 0 9.066 4.067 9.066 9.066 0 5-4.067 9.067-9.066 9.067s-9.067-4.067-9.067-9.067a7.5 7.5 0 00-15 0c0 10.652 6.959 19.704 16.567 22.864v1.986a7.5 7.5 0 0015 0v-1.986c9.608-3.16 16.566-12.212 16.566-22.864 0-13.27-10.796-24.066-24.066-24.066-4.999 0-9.067-4.067-9.067-9.067 0-4.999 4.067-9.066 9.067-9.066z"/><path d="M186.524 333.67a7.501 7.501 0 00-12.814 7.798c5.576 9.163 8.523 19.709 8.523 30.499 0 32.404-26.363 58.767-58.767 58.767S64.7 404.371 64.7 371.967 91.063 313.2 123.467 313.2c11.026 0 21.77 3.069 31.07 8.874a7.498 7.498 0 0010.333-2.39 7.5 7.5 0 00-2.39-10.334c-11.685-7.295-25.176-11.151-39.014-11.151-40.675 0-73.767 33.092-73.767 73.767s33.092 73.767 73.767 73.767 73.767-33.092 73.767-73.767c0-13.54-3.703-26.783-10.709-38.296z"/><path d="M471.366 49.7h-25.633V24.067C445.733 10.796 434.936 0 421.666 0H106.9C93.629 0 82.832 10.796 82.832 24.067v84.399a7.5 7.5 0 0015 0V24.067c0-5 4.068-9.067 9.068-9.067h314.766c5 0 9.067 4.067 9.067 9.067v414.165c0 5-4.067 9.067-9.067 9.067h-222.43c19.229-19.339 31.13-45.972 31.13-75.333 0-15.023-3.121-29.328-8.739-42.311a7.55 7.55 0 001.239.111h66.266c4.143 0 7.5-3.358 7.5-7.5s-3.357-7.5-7.5-7.5h-66.266a7.494 7.494 0 00-6.663 4.068c-18.465-32.104-53.118-53.767-92.736-53.767-8.834 0-17.418 1.085-25.634 3.114V138.467a7.5 7.5 0 00-15 0v134.631c-38.849 16.026-66.266 54.303-66.266 98.869 0 58.945 47.955 106.9 106.9 106.9 3.054 0 6.076-.136 9.066-.388v9.454c0 13.271 10.796 24.067 24.067 24.067h314.766c13.27 0 24.067-10.796 24.067-24.067V73.767c0-13.271-10.797-24.067-24.067-24.067zM123.467 463.867c-50.674 0-91.9-41.226-91.9-91.9s41.226-91.9 91.9-91.9 91.9 41.226 91.9 91.9-41.227 91.9-91.9 91.9zm356.966 24.066c0 5-4.067 9.067-9.067 9.067H156.6c-5 0-9.067-4.067-9.067-9.067v-11.798a106.305 106.305 0 0033.033-13.834h241.1c13.27 0 24.067-10.796 24.067-24.067V64.7h25.633c5 0 9.067 4.067 9.067 9.067z"/><path d="M297.7 33.133h-83.4c-8.547 0-15.5 6.953-15.5 15.5v17.133c0 8.547 6.953 15.5 15.5 15.5h83.4c8.547 0 15.5-6.953 15.5-15.5V48.633c0-8.547-6.953-15.5-15.5-15.5zm.5 32.634a.5.5 0 01-.5.5h-83.4a.5.5 0 01-.5-.5V48.633a.5.5 0 01.5-.5h83.4a.5.5 0 01.5.5zm65.767 298.7h-66.834c-8.547 0-15.5 6.953-15.5 15.5V397.1c0 8.547 6.953 15.5 15.5 15.5h66.834c8.547 0 15.5-6.953 15.5-15.5v-17.133c0-8.547-6.954-15.5-15.5-15.5zm.5 32.633a.5.5 0 01-.5.5h-66.834a.5.5 0 01-.5-.5v-17.133a.5.5 0 01.5-.5h66.834a.5.5 0 01.5.5zm7.5-281.133h-149.1a7.5 7.5 0 000 15h149.1a7.5 7.5 0 000-15zM164.6 164.1h17.133c8.547 0 15.5-6.953 15.5-15.5v-17.133c0-8.547-6.953-15.5-15.5-15.5H164.6c-8.547 0-15.5 6.953-15.5 15.5V148.6c0 8.547 6.953 15.5 15.5 15.5zm-.5-32.633a.5.5 0 01.5-.5h17.133a.5.5 0 01.5.5V148.6a.5.5 0 01-.5.5H164.6a.5.5 0 01-.5-.5zm58.766 32.633h66.266c4.143 0 7.5-3.358 7.5-7.5s-3.357-7.5-7.5-7.5h-66.266a7.5 7.5 0 000 15zm149.101 34.7h-149.1a7.5 7.5 0 000 15h149.1a7.5 7.5 0 000-15zM149.1 231.433c0 8.547 6.953 15.5 15.5 15.5h17.133c8.547 0 15.5-6.953 15.5-15.5V214.3c0-8.547-6.953-15.5-15.5-15.5H164.6c-8.547 0-15.5 6.953-15.5 15.5zm15-17.133a.5.5 0 01.5-.5h17.133a.5.5 0 01.5.5v17.133a.5.5 0 01-.5.5H164.6a.5.5 0 01-.5-.5zm58.766 32.633h66.266c4.143 0 7.5-3.358 7.5-7.5s-3.357-7.5-7.5-7.5h-66.266a7.5 7.5 0 000 15zm149.101 34.7h-149.1a7.5 7.5 0 000 15h149.1a7.5 7.5 0 000-15z"/></svg>