<svg height="496pt" viewBox="0 0 496 496.704" width="496pt" xmlns="http://www.w3.org/2000/svg"><linearGradient id="a" gradientUnits="userSpaceOnUse" x1="248.352" x2="248.352" y1="496.703" y2="0"><stop offset="0" stop-color="#9f2fff"/><stop offset="1" stop-color="#0bb1d3"/></linearGradient><path d="M432.352 216v-8h-80V0H85.039L.352 84.688V464h322.777c14.75 12.727 31.527 23.406 50.07 31.352l3.153 1.351 3.152-1.351a192.562 192.562 0 00116.848-177.2V272h-8c-30.872 0-56-25.129-56-56zM27.664 80l52.688-52.688V80zm20.688 16h48V48h208v80h-256zm-32 0h16v48h288V32h-224V16h240v192h-16v8c0 30.871-25.13 56-56 56h-8v46.152c0 49.094 18.593 95.04 50.328 129.848H16.352zm464 222.152a176.586 176.586 0 01-104 161.114 176.578 176.578 0 01-104-161.114V287.56c33.32-3.696 59.855-30.23 63.55-63.551h80.891c3.695 33.32 30.23 59.855 63.55 63.55v30.594zm-69.559 5.785l20.91-48.792L417 268.848l-20.176 47.082c-6.351-2.504-13.238-3.93-20.472-3.93-30.872 0-56 25.129-56 56s25.128 56 56 56c30.87 0 56-25.129 56-56 0-17.887-8.465-33.8-21.559-44.063zM376.352 408c-22.055 0-40-17.945-40-40s17.945-40 40-40c4.992 0 9.726 1.031 14.136 2.71l-17.703 41.298-16-10.664-8.875 13.312 32 21.336 24.266-56.625c7.488 7.274 12.176 17.403 12.176 28.633 0 22.055-17.946 40-40 40zm-344 24h208V288h-208zm16-128h176v112h-176zm16-144h176v16h-176zm-16 16h-16v-16h16zm-16 16h208v16h-208zm0 32h208v16h-208zm0 32h208v16h-208zm0 0" fill="url(#a)"/></svg>