<svg height="511pt" viewBox="0 -42 511.998 511" width="511pt" xmlns="http://www.w3.org/2000/svg"><path d="M269.309 215.781c-1.711 0-3.418-.437-4.957-1.312a10.009 10.009 0 01-5.043-8.688v-20.687h-22.856c-21.723 0-39.394-17.676-39.394-39.399v-105.8C197.059 18.172 214.73.5 236.453.5h236.149C494.328.5 512 18.172 512 39.895v105.8c0 21.727-17.676 39.399-39.398 39.399H324.008l-49.613 29.3a9.994 9.994 0 01-5.086 1.387zM236.453 20.5c-10.695 0-19.398 8.7-19.398 19.395v105.8c0 10.696 8.703 19.399 19.398 19.399h32.856c5.523 0 10 4.476 10 10v13.172l36.879-21.782a10.006 10.006 0 015.085-1.39h151.329c10.695 0 19.398-8.703 19.398-19.399v-105.8c0-10.696-8.703-19.395-19.398-19.395zm0 0"/><path d="M278.137 54.836c11.66 0 23.422 7.34 23.422 20.809 0 21.812-31.063 28.949-31.063 38.097v.903h26.336c2.516 0 4.727 3.117 4.727 6.738 0 3.617-2.211 6.933-4.727 6.933h-35.785c-2.813 0-6.836-1.91-6.836-4.824v-9.75c0-15.781 31.664-24.828 31.664-37.594 0-3.218-2.012-7.136-7.64-7.136-4.02 0-7.536 2.008-7.536 7.539 0 2.914-3.117 5.726-8.246 5.726-4.02 0-7.035-1.808-7.035-8.14.004-12.262 11.262-19.301 22.719-19.301zm52.269 58h-23.523c-2.914 0-5.227-1.91-5.227-5.426 0-.805.203-1.91.805-3.015l23.219-45.536c1.507-2.914 4.023-4.023 6.535-4.023 2.715 0 7.84 2.312 7.84 5.934 0 .601-.2 1.203-.504 1.91l-17.79 35.683h8.645v-7.039c0-3.316 3.918-4.722 7.84-4.722 3.918 0 7.84 1.406 7.84 4.722v7.04h4.324c3.215 0 4.824 3.616 4.824 7.238 0 3.617-2.414 7.234-4.824 7.234h-4.324v10.656c0 3.219-3.922 4.824-7.84 4.824-3.922 0-7.84-1.605-7.84-4.824zm72.168-56.793c0 .605-.097 1.309-.398 1.91l-35.387 72.477c-.703 1.507-2.61 2.511-4.52 2.511-3.417 0-5.628-2.812-5.628-5.328 0-.601.199-1.304.5-1.91l35.28-72.473c.806-1.71 2.415-2.515 4.224-2.515 2.816 0 5.93 2.113 5.93 5.328zm52.27 16.184c0 2.613-1.61 6.535-3.219 9.55l-23.52 45.032c-.804 1.507-2.312 2.113-4.421 2.113-4.926 0-9.954-3.418-9.954-7.942 0-.906.2-1.71.704-2.613l24.73-42.82v-7.04h-17.992v6.735c0 2.715-3.82 4.824-7.942 4.824-4.222 0-7.742-2.109-7.742-4.824V59.664c0-2.414 3.418-4.828 6.836-4.828h35.684c3.02 0 6.836 2.414 6.836 4.828zM129.5 308.055c-4.137 0-7.883-2.637-9.352-6.48-1.503-3.942-.27-8.583 3.008-11.25 3.242-2.641 7.887-2.997 11.48-.848 3.575 2.14 5.489 6.441 4.66 10.53-.929 4.61-5.077 8.048-9.796 8.048zm0 0"/><path d="M300.574 427.809c-16.511 0-34.969-4.246-55.308-12.75-9.016-3.77-22.465-13.024-41.118-28.286a9.185 9.185 0 01-.738-.668l-49.05-49.05c-3.907-3.907-3.907-10.239 0-14.14 3.902-3.907 10.234-3.907 14.14 0l48.695 48.694c21.887 17.875 31.809 23.332 35.785 24.996 39.512 16.524 68.426 14.852 88.395-5.117l34.805-34.804-73.184-73.184c-5.684-5.684-13.238-8.812-21.273-8.812s-15.59 3.128-21.274 8.812l-17.453 17.45c-8.414 8.421-21.742 9.155-30.996 1.71-15.035-12.101-23.895-19.426-45.688-41.14-21.742-21.817-29.066-30.676-41.167-45.715-7.446-9.254-6.711-22.578 1.71-30.996l17.454-17.454c5.68-5.683 8.808-13.238 8.808-21.273s-3.129-15.59-8.808-21.27L71.125 51.63 36.32 86.434c-19.965 19.968-21.64 48.882-5.117 88.394 1.582 3.785 5.848 11.356 17.18 25.977L68.59 223l36.305 36.309c3.906 3.906 3.906 10.238 0 14.144-3.903 3.902-10.235 3.902-14.141 0L54.28 236.977a6.66 6.66 0 01-.324-.34l-20.629-22.66a10.45 10.45 0 01-.504-.598c-10.465-13.48-17.031-23.566-20.07-30.832C-6.973 135.37-3.801 98.277 22.18 72.293l41.875-41.875c3.906-3.902 10.238-3.902 14.14 0l80.254 80.254c9.461 9.46 14.668 22.039 14.668 35.414 0 13.379-5.207 25.957-14.668 35.414L141 198.953c-1.188 1.184-1.3 3.04-.273 4.32 11.664 14.493 18.73 23.036 39.73 44.11 21.047 20.976 29.59 28.039 44.082 39.699 1.281 1.031 3.137.914 4.32-.266l17.453-17.453c9.458-9.46 22.036-14.672 35.415-14.672 13.375 0 25.953 5.211 35.41 14.672l80.254 80.25a10.013 10.013 0 012.93 7.07 10 10 0 01-2.93 7.07l-41.875 41.876c-14.782 14.781-33.16 22.18-54.942 22.18zm0 0"/></svg>