<svg version="1.0" xmlns="http://www.w3.org/2000/svg" width="1614.667" height="444" viewBox="0 0 1211 333"><path d="M941.4 3.6c-6 2.1-11.9 7.7-15.1 14.2-5.5 11.1-2.8 25.1 6.2 33 2.4 2 36.1 22.6 75 45.7l70.6 42-528.3.5-528.3.5-4.1 2.2c-5.7 3-10.3 7.9-13.1 14.1-2.1 4.5-2.5 6.5-2.1 12.5.6 11.9 6.5 20.5 17.4 25.4 3.7 1.7 29.3 1.8 530.6 2.3l526.7.5-70.2 41.7c-38.6 23-71.9 43.1-73.9 44.8-11.9 9.9-12.5 30.2-1 41.2 6.2 6 11.6 8.3 19.7 8.2 4 0 8.5-.7 10.6-1.6 2-.9 56-32.7 120-70.7 127.1-75.5 123.8-73.4 127.4-84.6 3.1-9.9.1-21.8-7.2-28.7-2.4-2.3-48.9-30.2-184.3-110.6-13.5-8-30.1-17.9-37-22C962.8 3.3 959.7 2 952 2.1c-3.6 0-8.4.7-10.6 1.5z"/></svg>