<svg id="Capa_1" enable-background="new 0 0 512 512" height="512" viewBox="0 0 512 512" width="512" xmlns="http://www.w3.org/2000/svg"><g><path d="m123.467 346.334c4.999 0 9.066 4.067 9.066 9.066 0 4.142 3.358 7.5 7.5 7.5s7.5-3.358 7.5-7.5c0-10.651-6.958-19.704-16.566-22.863v-1.987c0-4.142-3.358-7.5-7.5-7.5s-7.5 3.358-7.5 7.5v1.987c-9.608 3.16-16.567 12.212-16.567 22.863 0 13.271 10.796 24.067 24.067 24.067 4.999 0 9.066 4.067 9.066 9.066 0 5-4.067 9.067-9.066 9.067s-9.067-4.067-9.067-9.067c0-4.142-3.358-7.5-7.5-7.5s-7.5 3.358-7.5 7.5c0 10.652 6.959 19.704 16.567 22.864v1.986c0 4.142 3.358 7.5 7.5 7.5s7.5-3.358 7.5-7.5v-1.986c9.608-3.16 16.566-12.212 16.566-22.864 0-13.27-10.796-24.066-24.066-24.066-4.999 0-9.067-4.067-9.067-9.067 0-4.999 4.067-9.066 9.067-9.066z"/><path d="m186.524 333.67c-2.152-3.537-6.767-4.661-10.306-2.508s-4.661 6.767-2.508 10.306c5.576 9.163 8.523 19.709 8.523 30.499 0 32.404-26.363 58.767-58.767 58.767s-58.766-26.363-58.766-58.767 26.363-58.767 58.767-58.767c11.026 0 21.77 3.069 31.07 8.874 3.514 2.194 8.14 1.124 10.333-2.39 2.194-3.514 1.124-8.14-2.39-10.334-11.685-7.295-25.176-11.151-39.014-11.151-40.675 0-73.767 33.092-73.767 73.767s33.092 73.767 73.767 73.767 73.767-33.092 73.767-73.767c0-13.54-3.703-26.783-10.709-38.296z"/><path d="m471.366 49.7h-25.633v-25.633c0-13.271-10.797-24.067-24.067-24.067h-314.766c-13.271 0-24.068 10.796-24.068 24.067v84.399c0 4.142 3.358 7.5 7.5 7.5s7.5-3.358 7.5-7.5v-84.399c0-5 4.068-9.067 9.068-9.067h314.766c5 0 9.067 4.067 9.067 9.067v414.165c0 5-4.067 9.067-9.067 9.067h-222.43c19.229-19.339 31.13-45.972 31.13-75.333 0-15.023-3.121-29.328-8.739-42.311.404.067.816.111 1.239.111h66.266c4.143 0 7.5-3.358 7.5-7.5s-3.357-7.5-7.5-7.5h-66.266c-2.904 0-5.417 1.654-6.663 4.068-18.465-32.104-53.118-53.767-92.736-53.767-8.834 0-17.418 1.085-25.634 3.114v-129.714c0-4.142-3.358-7.5-7.5-7.5s-7.5 3.358-7.5 7.5v134.631c-38.849 16.026-66.266 54.303-66.266 98.869 0 58.945 47.955 106.9 106.9 106.9 3.054 0 6.076-.136 9.066-.388v9.454c0 13.271 10.796 24.067 24.067 24.067h314.766c13.27 0 24.067-10.796 24.067-24.067v-414.166c0-13.271-10.797-24.067-24.067-24.067zm-347.899 414.167c-50.674 0-91.9-41.226-91.9-91.9s41.226-91.9 91.9-91.9 91.9 41.226 91.9 91.9-41.227 91.9-91.9 91.9zm356.966 24.066c0 5-4.067 9.067-9.067 9.067h-314.766c-5 0-9.067-4.067-9.067-9.067v-11.798c11.888-2.745 23.02-7.483 33.033-13.834h241.1c13.27 0 24.067-10.796 24.067-24.067v-373.534h25.633c5 0 9.067 4.067 9.067 9.067z"/><path d="m297.7 33.133h-83.4c-8.547 0-15.5 6.953-15.5 15.5v17.133c0 8.547 6.953 15.5 15.5 15.5h83.4c8.547 0 15.5-6.953 15.5-15.5v-17.133c0-8.547-6.953-15.5-15.5-15.5zm.5 32.634c0 .276-.225.5-.5.5h-83.4c-.276 0-.5-.224-.5-.5v-17.134c0-.276.224-.5.5-.5h83.4c.275 0 .5.224.5.5z"/><path d="m363.967 364.467h-66.834c-8.547 0-15.5 6.953-15.5 15.5v17.133c0 8.547 6.953 15.5 15.5 15.5h66.834c8.547 0 15.5-6.953 15.5-15.5v-17.133c0-8.547-6.954-15.5-15.5-15.5zm.5 32.633c0 .276-.225.5-.5.5h-66.834c-.275 0-.5-.224-.5-.5v-17.133c0-.276.225-.5.5-.5h66.834c.275 0 .5.224.5.5z"/><path d="m371.967 115.967h-149.1c-4.142 0-7.5 3.358-7.5 7.5s3.358 7.5 7.5 7.5h149.1c4.143 0 7.5-3.358 7.5-7.5s-3.358-7.5-7.5-7.5z"/><path d="m164.6 164.1h17.133c8.547 0 15.5-6.953 15.5-15.5v-17.133c0-8.547-6.953-15.5-15.5-15.5h-17.133c-8.547 0-15.5 6.953-15.5 15.5v17.133c0 8.547 6.953 15.5 15.5 15.5zm-.5-32.633c0-.276.224-.5.5-.5h17.133c.276 0 .5.224.5.5v17.133c0 .276-.224.5-.5.5h-17.133c-.276 0-.5-.224-.5-.5z"/><path d="m222.866 164.1h66.266c4.143 0 7.5-3.358 7.5-7.5s-3.357-7.5-7.5-7.5h-66.266c-4.142 0-7.5 3.358-7.5 7.5s3.358 7.5 7.5 7.5z"/><path d="m371.967 198.8h-149.1c-4.142 0-7.5 3.358-7.5 7.5s3.358 7.5 7.5 7.5h149.1c4.143 0 7.5-3.358 7.5-7.5s-3.358-7.5-7.5-7.5z"/><path d="m149.1 231.433c0 8.547 6.953 15.5 15.5 15.5h17.133c8.547 0 15.5-6.953 15.5-15.5v-17.133c0-8.547-6.953-15.5-15.5-15.5h-17.133c-8.547 0-15.5 6.953-15.5 15.5zm15-17.133c0-.276.224-.5.5-.5h17.133c.276 0 .5.224.5.5v17.133c0 .276-.224.5-.5.5h-17.133c-.276 0-.5-.224-.5-.5z"/><path d="m222.866 246.933h66.266c4.143 0 7.5-3.358 7.5-7.5s-3.357-7.5-7.5-7.5h-66.266c-4.142 0-7.5 3.358-7.5 7.5s3.358 7.5 7.5 7.5z"/><path d="m371.967 281.633h-149.1c-4.142 0-7.5 3.358-7.5 7.5s3.358 7.5 7.5 7.5h149.1c4.143 0 7.5-3.358 7.5-7.5s-3.358-7.5-7.5-7.5z"/></g></svg>