<svg height="496pt" viewBox="0 0 496 496.704" width="496pt" xmlns="http://www.w3.org/2000/svg" xmlns:xlink="http://www.w3.org/1999/xlink"><linearGradient id="a" gradientUnits="userSpaceOnUse" x1="248.352" x2="248.352" y1="496.7032" y2="0"><stop offset="0" stop-color="#9f2fff"/><stop offset="1" stop-color="#0bb1d3"/></linearGradient><path d="m432.351562 216v-8h-80v-208h-267.3125l-84.6875 84.6875v379.3125h322.777344c14.75 12.726562 31.527344 23.40625 50.070313 31.351562l3.152343 1.351563 3.152344-1.351563c70.984375-30.414062 116.847656-99.976562 116.847656-177.199218v-46.152344h-8c-30.871093 0-56-25.128906-56-56zm-404.6875-136 52.6875-52.6875v52.6875zm20.6875 16h48v-48h208v80h-256zm-32 0h16v48h288v-112h-224v-16h240v192h-16v8c0 30.871094-25.128906 56-56 56h-8v46.152344c0 49.09375 18.59375 95.039062 50.328126 129.847656h-290.328126zm464 222.152344c0 69.671875-40.703124 132.527344-104 161.113281-63.296874-28.578125-104-91.441406-104-161.113281v-30.59375c33.320313-3.695313 59.855469-30.230469 63.550782-63.550782h80.890625c3.695312 33.320313 30.230469 59.855469 63.550781 63.550782v30.59375zm-69.558593 5.785156 20.910156-48.792969-14.703125-6.296875-20.175781 47.082032c-6.351563-2.503907-13.238281-3.929688-20.472657-3.929688-30.871093 0-56 25.128906-56 56s25.128907 56 56 56c30.871094 0 56-25.128906 56-56 0-17.886719-8.464843-33.800781-21.558593-44.0625zm-34.441407 84.0625c-22.054687 0-40-17.945312-40-40s17.945313-40 40-40c4.992188 0 9.726563 1.03125 14.136719 2.710938l-17.703125 41.296874-16-10.664062-8.875 13.3125 32 21.335938 24.265625-56.625c7.488281 7.273437 12.175781 17.402343 12.175781 28.632812 0 22.054688-17.945312 40-40 40zm-344 24h208v-144h-208zm16-128h176v112h-176zm16-144h176v16h-176zm-16 16h-16v-16h16zm-16 16h208v16h-208zm0 32h208v16h-208zm0 32h208v16h-208zm0 0" fill="url(#a)"/></svg>