<?xml version="1.0" standalone="no"?>
<!DOCTYPE svg PUBLIC "-//W3C//DTD SVG 20010904//EN"
 "http://www.w3.org/TR/2001/REC-SVG-20010904/DTD/svg10.dtd">
<svg version="1.0" xmlns="http://www.w3.org/2000/svg"
 width="1211.000000pt" height="333.000000pt" viewBox="0 0 1211.000000 333.000000"
 preserveAspectRatio="xMidYMid meet">

<g transform="translate(0.000000,333.000000) scale(0.100000,-0.100000)"
fill="#000000" stroke="none">
<path d="M9414 3294 c-60 -21 -119 -77 -151 -142 -55 -111 -28 -251 62 -330
24 -20 361 -226 750 -457 l706 -420 -5283 -5 -5283 -5 -41 -22 c-57 -30 -103
-79 -131 -141 -21 -45 -25 -65 -21 -125 6 -119 65 -205 174 -254 37 -17 293
-18 5306 -23 l5267 -5 -702 -417 c-386 -230 -719 -431 -739 -448 -119 -99
-125 -302 -10 -412 62 -60 116 -83 197 -82 40 0 85 7 106 16 20 9 560 327
1200 707 1271 755 1238 734 1274 846 31 99 1 218 -72 287 -24 23 -489 302
-1843 1106 -135 80 -301 179 -370 220 -182 109 -213 122 -290 121 -36 0 -84
-7 -106 -15z"/>
</g>
</svg>
